<svg xmlns="http://www.w3.org/2000/svg" width="400" height="400" viewBox="2650 2650 400 400" style=" background-color:#FFFFFF; font-family: Inter, sans-serif ">
      <defs>
      <marker id="arrowhead" refX="1" refY="3" orient="auto" markerWidth="8" markerHeight="8">
      <path d="M2.91922181,1.64495663 L4.49787879,4.07365967 C4.64837316,4.30518948 4.58268096,4.61488128 4.35115115,4.76537565 C4.27004602,4.81809399 4.17538993,4.84615385 4.07865698,4.84615385 L0.921343022,4.84615385 C0.645200647,4.84615385 0.421343022,4.62229622 0.421343022,4.34615385 C0.421343022,4.24942089 0.44940288,4.1547648 0.502121214,4.07365967 L2.08077819,1.64495663 C2.23127257,1.41342682 2.54096436,1.34773462 2.77249418,1.498229 C2.83112579,1.53633954 2.88111126,1.58632502 2.91922181,1.64495663 Z" id="arrowhead" fill="#a2b3d8" transform="translate(2.500000, 2.923077) rotate(90.000000) translate(-2.500000, -2.923077) "></path>
      </marker>
      </defs>
      
  <path stroke-linecap="round" marker-end="url(#arrowhead)" d="M 2779 2745 L 2779 2745 C 2779 2745 2781 2745 2783 2745 L 2946 2745 C 2948 2745 2950 2747 2950 2749 L 2950 2811  " fill="none" stroke-linejoin="round" style="stroke-width: 2px; stroke: #a2b3d8;" mask="url(#b2b6e632-cd25-4ba3-9d32-cd7ad836fefe-mask)"></path>
  
  <path stroke-linecap="round" marker-end="url(#arrowhead)" d="M 2779 2945 L 2779 2945 C 2779 2945 2781 2945 2783 2945 L 2946 2945 C 2948 2945 2950 2943 2950 2941 L 2950 2895  " fill="none" stroke-linejoin="round" style="stroke-width: 2px; stroke: #a2b3d8;" mask="url(#e3a55704-b459-45cd-b0cd-d15a71f8a9ff-mask)"></path>
  <g transform="translate(2700,2700)" width="100" height="100">
  <g transform="translate(25,20)"><path d="M0,25 C 0,0 0,0 25,0
  S 50,0 50,25
  50,50 25,50
  0,50 0,25" fill="#dfe1e3"></path>
  <svg viewBox="0 0 50 50" width="40" height="40" x="5" y="5">
  
    <g  stroke="none" stroke-width="1" fill="none" fill-rule="evenodd">
      <path
        d="M41.5957447,38.1095351 L41.5957447,39.9746014 C41.5957447,40.399406 41.2781228,40.7446809 40.8842357,40.7446809 L31.2443211,40.7446809 C30.850434,40.7446809 30.5319149,40.399406 30.5319149,39.9746014 L30.5319149,38.1095351 C30.5319149,37.6847306 30.850434,37.3404255 31.2443211,37.3404255 L40.8842357,37.3404255 C41.2781228,37.3404255 41.5957447,37.6847306 41.5957447,38.1095351 L41.5957447,38.1095351 Z M43.2978723,41.8713175 C43.2978723,42.1880606 43.0321194,42.4468085 42.7056755,42.4468085 L7.29524411,42.4468085 C6.96788061,42.4468085 6.70212766,42.1880606 6.70212766,41.8713175 L6.70212766,37.0639604 C6.70212766,36.7472173 6.96788061,36.4893617 7.29524411,36.4893617 L42.7056755,36.4893617 C43.0321194,36.4893617 43.2978723,36.7472173 43.2978723,37.0639604 L43.2978723,41.8713175 Z M42.5852227,34.787234 L7.41569057,34.787234 C6.08409252,34.787234 5,35.8271309 5,37.1055201 L5,41.8297733 C5,43.1081625 6.08409252,44.1489362 7.41569057,44.1489362 L42.5852227,44.1489362 C43.9168208,44.1489362 45,43.1081625 45,41.8297733 L45,37.1055201 C45,35.8271309 43.9168208,34.787234 42.5852227,34.787234 L42.5852227,34.787234 Z M10.106383,27.9787234 L39.893617,27.9787234 L39.893617,10.106383 L10.106383,10.106383 L10.106383,27.9787234 Z M40.3118914,8.40425532 L9.68901144,8.40425532 C8.98117673,8.40425532 8.40425532,8.97592697 8.40425532,9.67952285 L8.40425532,28.4046861 C8.40425532,29.108282 8.98117673,29.6808511 9.68901144,29.6808511 L40.3118914,29.6808511 C41.0197261,29.6808511 41.5957447,29.108282 41.5957447,28.4046861 L41.5957447,9.67952285 C41.5957447,8.97592697 41.0197261,8.40425532 40.3118914,8.40425532 L40.3118914,8.40425532 Z M43.2978723,30.7879254 C43.2978723,31.1159439 43.0321194,31.3829787 42.7056755,31.3829787 L7.29524411,31.3829787 C6.96788061,31.3829787 6.70212766,31.1159439 6.70212766,30.7879254 L6.70212766,7.29718094 C6.70212766,6.96916244 6.96788061,6.70212766 7.29524411,6.70212766 L42.7056755,6.70212766 C43.0321194,6.70212766 43.2978723,6.96916244 43.2978723,7.29718094 L43.2978723,30.7879254 Z M42.5852227,5 L7.41569057,5 C6.08409252,5 5,6.08459302 5,7.41792912 L5,30.6671773 C5,32.0005134 6.08409252,33.0851064 7.41569057,33.0851064 L42.5852227,33.0851064 C43.9168208,33.0851064 45,32.0005134 45,30.6671773 L45,7.41792912 C45,6.08459302 43.9168208,5 42.5852227,5 L42.5852227,5 Z"
        id="Fill-3"
        fill="#232F3D"
      />
    </g>
  
  </svg>
  </g>
  <g><text x="50" y="82" text-anchor="middle" style="fill: rgb(16, 24, 64); font-size: 10px;">Client</text>
  </g></g><g transform="translate(2700,2900)" width="100" height="100">
  <g transform="translate(25,20)"><path d="M0,25 C 0,0 0,0 25,0
  S 50,0 50,25
  50,50 25,50
  0,50 0,25" fill="#dfe1e3"></path>
  <svg viewBox="0 0 50 50" width="40" height="40" x="5" y="5">
  
    <g  stroke="none" stroke-width="1" fill="none" fill-rule="evenodd">
      <path
        d="M26.3501846,42.522158 L26.3501846,35.0995197 L34.1638701,30.5893211 C34.4451337,30.426914 34.6175211,30.1275043 34.6175211,29.8026902 L34.6175211,20.6262369 L41.0711608,16.9017619 L41.0711608,34.0225521 L26.3501846,42.522158 Z M9.81460416,16.9017619 L16.2682439,20.6262369 L16.2682439,29.8026902 C16.2682439,30.1275043 16.4406313,30.426914 16.7218949,30.5893211 L24.5355804,35.0995197 L24.5355804,42.522158 L9.81460416,34.0225521 L9.81460416,16.9017619 Z M26.3501846,25.4902834 L32.802917,21.764901 L32.802917,29.2791769 L26.3501846,33.0054665 L26.3501846,25.4902834 Z M18.082848,21.7639937 L24.5355804,25.4902834 L24.5355804,33.0054665 L18.082848,29.2791769 L18.082848,21.7639937 Z M25.4428825,23.828106 L19.1226162,20.178937 L25.4428825,16.5306753 L31.7631488,20.178937 L25.4428825,23.828106 Z M25.4428825,6.95410186 L40.0558898,15.3911039 L33.577753,19.1319104 L25.8965335,14.6970178 C25.6161772,14.535518 25.2695878,14.535518 24.9892315,14.6970178 L17.308012,19.1319104 L10.8298752,15.3911039 L25.4428825,6.95410186 Z M42.432114,14.6670768 L25.8965335,5.12044435 C25.6161772,4.95985188 25.2695878,4.95985188 24.9892315,5.12044435 L8.45365104,14.6670768 C8.1732947,14.8294839 8,15.1288936 8,15.4528004 L8,34.5460654 C8,34.8699723 8.1732947,35.169382 8.45365104,35.331789 L24.9892315,44.8793288 C25.128956,44.9600787 25.2859192,45 25.4428825,45 C25.5998458,45 25.756809,44.9600787 25.8965335,44.8793288 L42.432114,35.331789 C42.7124703,35.169382 42.885765,34.8699723 42.885765,34.5460654 L42.885765,15.4528004 C42.885765,15.1288936 42.7124703,14.8294839 42.432114,14.6670768 L42.432114,14.6670768 Z"
        id="Fill-1"
        fill="#232F3D"
      ></path>
    </g>
  
  </svg>
  </g>
  <g><text x="50" y="82" text-anchor="middle" style="fill: rgb(16, 24, 64); font-size: 10px;">Application</text>
  </g></g><g transform="translate(2900,2800)" width="100" height="100">
  <g transform="translate(25,20)"><path d="M0,25 C 0,0 0,0 25,0
  S 50,0 50,25
  50,50 25,50
  0,50 0,25" fill="#e1e1e0"></path>
  <svg viewBox="0 0 50 50" width="40" height="40" x="5" y="5">
  
    <g id="github" stroke="none" stroke-width="1" fill="none" fill-rule="evenodd">
      <g
        id="Page-1"
        stroke="none"
        stroke-width="1"
        fill="none"
        fill-rule="evenodd"
      >
        <rect id="Rectangle" x="0" y="0" width="50" height="50"></rect>
        <path
          d="M24.9981583,5 C13.9554621,5 5,13.9542343 5,25.0006139 C5,33.8369809 10.7300715,41.3326069 18.6775223,43.9772553 C19.6781669,44.161423 20.042819,43.5438473 20.042819,43.0134442 C20.042819,42.5395193 20.02563,41.2810399 20.0158077,39.6124804 C14.4527149,40.8206206 13.2789527,36.9309985 13.2789527,36.9309985 C12.3691642,34.6203076 11.0578901,34.0051874 11.0578901,34.0051874 C9.24199638,32.7651248 11.1954019,32.7896805 11.1954019,32.7896805 C13.20283,32.9308757 14.2587249,34.8511311 14.2587249,34.8511311 C16.0426962,37.9070874 18.9402683,37.0243101 20.0796525,36.5123239 C20.2613647,35.2206943 20.7782621,34.3391448 21.349182,33.8394364 C16.9082845,33.3348169 12.239019,31.6183738 12.239019,23.9545413 C12.239019,21.7715399 13.0186623,19.9851131 14.2980141,18.587894 C14.0917462,18.0820467 13.4054145,16.0476074 14.4944596,13.2949139 C14.4944596,13.2949139 16.1728414,12.7571442 19.9937076,15.3453145 C21.5886,14.9008564 23.300132,14.6798551 25.0006139,14.6712606 C26.699868,14.6798551 28.4101722,14.9008564 30.0075202,15.3453145 C33.8259308,12.7571442 35.501857,13.2949139 35.501857,13.2949139 C36.5933577,16.0476074 35.907026,18.0820467 35.7019859,18.587894 C36.9837932,19.9851131 37.7572976,21.7715399 37.7572976,23.9545413 C37.7572976,31.6380184 33.0806655,33.328678 28.6262623,33.8234752 C29.3432886,34.441051 29.9829645,35.661469 29.9829645,37.5277019 C29.9829645,40.2005893 29.9584088,42.3578072 29.9584088,43.0134442 C29.9584088,43.5487584 30.3193775,44.1712453 31.3335277,43.9760275 C39.2748396,41.3252402 45,33.8345253 45,25.0006139 C45,13.9542343 36.0445379,5 24.9981583,5"
          id="Fill-4"
          fill="#161514"
        ></path>
      </g>
    </g>
  
  </svg>
  </g>
  <g><text x="50" y="82" text-anchor="middle" style="fill: rgb(16, 24, 64); font-size: 10px;">Github</text>
  </g></g></svg>